<mxfile host="app.diagrams.net" agent="Mozilla/5.0 (Windows NT 10.0; Win64; x64) AppleWebKit/537.36 (KHTML, like Gecko) Chrome/133.0.0.0 Safari/537.36 Edg/133.0.0.0" version="26.1.0">
  <diagram id="C5RBs43oDa-KdzZeNtuy" name="Page-1">
    <mxGraphModel dx="664" dy="893" grid="1" gridSize="10" guides="1" tooltips="1" connect="1" arrows="1" fold="1" page="1" pageScale="1" pageWidth="827" pageHeight="1169" math="0" shadow="0">
      <root>
        <mxCell id="WIyWlLk6GJQsqaUBKTNV-0" />
        <mxCell id="WIyWlLk6GJQsqaUBKTNV-1" parent="WIyWlLk6GJQsqaUBKTNV-0" />
        <mxCell id="AcaFPXL1Tkq35xk4qhs0-6" style="edgeStyle=orthogonalEdgeStyle;rounded=0;orthogonalLoop=1;jettySize=auto;html=1;entryX=0.5;entryY=0;entryDx=0;entryDy=0;" edge="1" parent="WIyWlLk6GJQsqaUBKTNV-1" source="AcaFPXL1Tkq35xk4qhs0-0" target="AcaFPXL1Tkq35xk4qhs0-1">
          <mxGeometry relative="1" as="geometry" />
        </mxCell>
        <mxCell id="AcaFPXL1Tkq35xk4qhs0-0" value="ShowMenu&lt;div&gt;Начало&lt;/div&gt;" style="strokeWidth=2;html=1;shape=mxgraph.flowchart.terminator;whiteSpace=wrap;" vertex="1" parent="WIyWlLk6GJQsqaUBKTNV-1">
          <mxGeometry x="160" y="40" width="160" height="40" as="geometry" />
        </mxCell>
        <mxCell id="AcaFPXL1Tkq35xk4qhs0-7" style="edgeStyle=orthogonalEdgeStyle;rounded=0;orthogonalLoop=1;jettySize=auto;html=1;entryX=0.5;entryY=0;entryDx=0;entryDy=0;" edge="1" parent="WIyWlLk6GJQsqaUBKTNV-1" source="AcaFPXL1Tkq35xk4qhs0-1" target="AcaFPXL1Tkq35xk4qhs0-2">
          <mxGeometry relative="1" as="geometry" />
        </mxCell>
        <mxCell id="AcaFPXL1Tkq35xk4qhs0-1" value="Вывод&lt;div&gt;&#39;1. Добавить элемент&#39;&lt;/div&gt;" style="shape=parallelogram;perimeter=parallelogramPerimeter;whiteSpace=wrap;html=1;fixedSize=1;" vertex="1" parent="WIyWlLk6GJQsqaUBKTNV-1">
          <mxGeometry x="160" y="120" width="160" height="40" as="geometry" />
        </mxCell>
        <mxCell id="AcaFPXL1Tkq35xk4qhs0-8" style="edgeStyle=orthogonalEdgeStyle;rounded=0;orthogonalLoop=1;jettySize=auto;html=1;entryX=0.5;entryY=0;entryDx=0;entryDy=0;" edge="1" parent="WIyWlLk6GJQsqaUBKTNV-1" source="AcaFPXL1Tkq35xk4qhs0-2" target="AcaFPXL1Tkq35xk4qhs0-3">
          <mxGeometry relative="1" as="geometry" />
        </mxCell>
        <mxCell id="AcaFPXL1Tkq35xk4qhs0-2" value="Вывод&lt;div&gt;&#39;2. Удалить элемент&#39;&lt;/div&gt;" style="shape=parallelogram;perimeter=parallelogramPerimeter;whiteSpace=wrap;html=1;fixedSize=1;" vertex="1" parent="WIyWlLk6GJQsqaUBKTNV-1">
          <mxGeometry x="160" y="200" width="160" height="40" as="geometry" />
        </mxCell>
        <mxCell id="AcaFPXL1Tkq35xk4qhs0-9" style="edgeStyle=orthogonalEdgeStyle;rounded=0;orthogonalLoop=1;jettySize=auto;html=1;entryX=0.5;entryY=0;entryDx=0;entryDy=0;" edge="1" parent="WIyWlLk6GJQsqaUBKTNV-1" source="AcaFPXL1Tkq35xk4qhs0-3" target="AcaFPXL1Tkq35xk4qhs0-5">
          <mxGeometry relative="1" as="geometry" />
        </mxCell>
        <mxCell id="AcaFPXL1Tkq35xk4qhs0-3" value="Вывод&lt;div&gt;&#39;3. Найти элемент&#39;&lt;/div&gt;" style="shape=parallelogram;perimeter=parallelogramPerimeter;whiteSpace=wrap;html=1;fixedSize=1;" vertex="1" parent="WIyWlLk6GJQsqaUBKTNV-1">
          <mxGeometry x="160" y="280" width="160" height="40" as="geometry" />
        </mxCell>
        <mxCell id="AcaFPXL1Tkq35xk4qhs0-12" style="edgeStyle=orthogonalEdgeStyle;rounded=0;orthogonalLoop=1;jettySize=auto;html=1;" edge="1" parent="WIyWlLk6GJQsqaUBKTNV-1" source="AcaFPXL1Tkq35xk4qhs0-4" target="AcaFPXL1Tkq35xk4qhs0-11">
          <mxGeometry relative="1" as="geometry" />
        </mxCell>
        <mxCell id="AcaFPXL1Tkq35xk4qhs0-4" value="Вывод&lt;div&gt;&#39;5. Выход&#39;&lt;/div&gt;" style="shape=parallelogram;perimeter=parallelogramPerimeter;whiteSpace=wrap;html=1;fixedSize=1;" vertex="1" parent="WIyWlLk6GJQsqaUBKTNV-1">
          <mxGeometry x="160" y="440" width="160" height="40" as="geometry" />
        </mxCell>
        <mxCell id="AcaFPXL1Tkq35xk4qhs0-10" style="edgeStyle=orthogonalEdgeStyle;rounded=0;orthogonalLoop=1;jettySize=auto;html=1;entryX=0.5;entryY=0;entryDx=0;entryDy=0;" edge="1" parent="WIyWlLk6GJQsqaUBKTNV-1" source="AcaFPXL1Tkq35xk4qhs0-5" target="AcaFPXL1Tkq35xk4qhs0-4">
          <mxGeometry relative="1" as="geometry" />
        </mxCell>
        <mxCell id="AcaFPXL1Tkq35xk4qhs0-5" value="Вывод&lt;div&gt;&#39;4. Вывести список&#39;&lt;/div&gt;" style="shape=parallelogram;perimeter=parallelogramPerimeter;whiteSpace=wrap;html=1;fixedSize=1;" vertex="1" parent="WIyWlLk6GJQsqaUBKTNV-1">
          <mxGeometry x="160" y="360" width="160" height="40" as="geometry" />
        </mxCell>
        <mxCell id="AcaFPXL1Tkq35xk4qhs0-11" value="ShowMenu&lt;div&gt;Конец&lt;/div&gt;" style="strokeWidth=2;html=1;shape=mxgraph.flowchart.terminator;whiteSpace=wrap;" vertex="1" parent="WIyWlLk6GJQsqaUBKTNV-1">
          <mxGeometry x="160" y="520" width="160" height="40" as="geometry" />
        </mxCell>
      </root>
    </mxGraphModel>
  </diagram>
</mxfile>
